<svg xmlns="http://www.w3.org/2000/svg" viewBox="0 0 1200 675" width="1200" height="675">
  <defs>
    <marker id="arr" markerWidth="8" markerHeight="8" refX="6" refY="3" orient="auto">
      <path d="M0,0 L0,6 L8,3 z" fill="#b0b8c1"/>
    </marker>
  </defs>
  <path d="M 0,0 H 1200 V 675 H 0 Z" fill="#ffffff"/>
  <rect width="1200" height="5" fill="#1f618d"/>

  <!-- title -->
  <text x="60" y="52" font-family="'Helvetica Neue', Arial, sans-serif"
        font-size="26" font-weight="700" fill="#1f618d">Experiment Timeline</text>
  <line x1="60" y1="65" x2="1140" y2="65" stroke="#d5dbdb" stroke-width="1.5"/>

  <!-- timeline axis -->
  <line x1="150" y1="295" x2="1060" y2="295" stroke="#d5dbdb" stroke-width="3"/>

  <!-- ─── NODE 1: GPT-4 Baseline ─── -->
  <circle cx="240" cy="295" r="22" fill="#7f8c8d"/>
  <text x="240" y="302" font-family="'Helvetica Neue', Arial, sans-serif"
        font-size="16" font-weight="700" fill="#ffffff" text-anchor="middle">1</text>
  <text x="240" y="258" font-family="'Helvetica Neue', Arial, sans-serif"
        font-size="15" fill="#7f8c8d" text-anchor="middle">2026-05-10</text>

  <path d="M 136,335 H 344 A 6,6 0 0,1 350,341 V 424 A 6,6 0 0,1 344,430 H 136 A 6,6 0 0,1 130,424 V 341 A 6,6 0 0,1 136,335 Z" fill="#f2f3f4" stroke="#d5dbdb" stroke-width="1.5"/>
  <text x="240" y="362" font-family="'Helvetica Neue', Arial, sans-serif"
        font-size="16" font-weight="600" fill="#2c3e50" text-anchor="middle">GPT-4 Baseline</text>
  <text x="240" y="386" font-family="'Helvetica Neue', Arial, sans-serif"
        font-size="15" fill="#7f8c8d" text-anchor="middle">Zero-shot · Quick mode</text>
  <text x="240" y="414" font-family="'Helvetica Neue', Arial, sans-serif"
        font-size="18" font-weight="700" fill="#7f8c8d" text-anchor="middle">QWK = 0.674</text>

  <!-- ─── NODE 2: BERT Fine-Tuned ─── -->
  <circle cx="600" cy="295" r="22" fill="#d68910"/>
  <text x="600" y="302" font-family="'Helvetica Neue', Arial, sans-serif"
        font-size="16" font-weight="700" fill="#ffffff" text-anchor="middle">2</text>
  <text x="600" y="258" font-family="'Helvetica Neue', Arial, sans-serif"
        font-size="15" fill="#7f8c8d" text-anchor="middle">2026-05-18</text>
  <!-- amended badge above -->
  <rect x="532" y="165" width="136" height="26" rx="4" fill="#fef3c7" stroke="#d68910" stroke-width="1"/>
  <text x="600" y="182" font-family="'Helvetica Neue', Arial, sans-serif"
        font-size="13" fill="#d68910" text-anchor="middle">amended 2026-05-20</text>

  <path d="M 496,335 H 704 A 6,6 0 0,1 710,341 V 424 A 6,6 0 0,1 704,430 H 496 A 6,6 0 0,1 490,424 V 341 A 6,6 0 0,1 496,335 Z" fill="#fffbeb" stroke="#f0ca5b" stroke-width="1.5"/>
  <text x="600" y="362" font-family="'Helvetica Neue', Arial, sans-serif"
        font-size="16" font-weight="600" fill="#2c3e50" text-anchor="middle">BERT Fine-Tuned</text>
  <text x="600" y="386" font-family="'Helvetica Neue', Arial, sans-serif"
        font-size="15" fill="#7f8c8d" text-anchor="middle">Per-prompt + rubric prefix</text>
  <text x="600" y="414" font-family="'Helvetica Neue', Arial, sans-serif"
        font-size="18" font-weight="700" fill="#d68910" text-anchor="middle">QWK = 0.836</text>

  <!-- ─── NODE 3: Cross-Lingual ─── -->
  <circle cx="960" cy="295" r="22" fill="#1e8449"/>
  <text x="960" y="302" font-family="'Helvetica Neue', Arial, sans-serif"
        font-size="16" font-weight="700" fill="#ffffff" text-anchor="middle">3</text>
  <text x="960" y="258" font-family="'Helvetica Neue', Arial, sans-serif"
        font-size="15" fill="#7f8c8d" text-anchor="middle">2026-05-25</text>
  <!-- amended badges above -->
  <rect x="878" y="140" width="164" height="26" rx="4" fill="#d5f5e3" stroke="#1e8449" stroke-width="1"/>
  <text x="960" y="157" font-family="'Helvetica Neue', Arial, sans-serif"
        font-size="13" fill="#1e8449" text-anchor="middle">amended ×2 (05-27, 05-29)</text>

  <path d="M 856,335 H 1064 A 6,6 0 0,1 1070,341 V 424 A 6,6 0 0,1 1064,430 H 856 A 6,6 0 0,1 850,424 V 341 A 6,6 0 0,1 856,335 Z" fill="#eafaf1" stroke="#a9dfbf" stroke-width="1.5"/>
  <text x="960" y="362" font-family="'Helvetica Neue', Arial, sans-serif"
        font-size="16" font-weight="600" fill="#2c3e50" text-anchor="middle">Cross-Lingual Eval</text>
  <text x="960" y="386" font-family="'Helvetica Neue', Arial, sans-serif"
        font-size="15" fill="#7f8c8d" text-anchor="middle">ZH-BERT-FT · 0 DIF flags</text>
  <text x="960" y="414" font-family="'Helvetica Neue', Arial, sans-serif"
        font-size="18" font-weight="700" fill="#1e8449" text-anchor="middle">zh-TW QWK = 0.811</text>

  <!-- follows arrows on axis -->
  <path d="M 263 295 L 577 295" stroke="#d5dbdb" stroke-width="2" marker-end="url(#arr)"/>
  <path d="M 623 295 L 937 295" stroke="#d5dbdb" stroke-width="2" marker-end="url(#arr)"/>
  <text x="420" y="283" font-family="'Helvetica Neue', Arial, sans-serif"
        font-size="13" fill="#b0b8c1" text-anchor="middle">follows:</text>
  <text x="780" y="283" font-family="'Helvetica Neue', Arial, sans-serif"
        font-size="13" fill="#b0b8c1" text-anchor="middle">follows:</text>

  <!-- summary bar -->
  <path d="M 65,475 H 1135 A 5,5 0 0,1 1140,480 V 522 A 5,5 0 0,1 1135,527 H 65 A 5,5 0 0,1 60,522 V 480 A 5,5 0 0,1 65,475 Z" fill="#eaf1fb" stroke="#1f618d" stroke-width="1"/>
  <text x="600" y="497" font-family="'Helvetica Neue', Arial, sans-serif"
        font-size="16" font-weight="600" fill="#1f618d" text-anchor="middle">3-phase progression: GPT-4 baseline → BERT EN fine-tune → ZH-BERT cross-lingual</text>
  <text x="600" y="518" font-family="'Helvetica Neue', Arial, sans-serif"
        font-size="15" fill="#2c3e50" text-anchor="middle">QWK improved from 0.674 to 0.836 (EN), then extended to zh-TW with QWK = 0.811</text>

  <!-- footer -->
  <line x1="0" y1="648" x2="1200" y2="648" stroke="#d5dbdb" stroke-width="1"/>
  <text x="600" y="663" font-family="'Helvetica Neue', Arial, sans-serif"
        font-size="12" fill="#7f8c8d" text-anchor="middle">Cross-Lingual ESAS  ·  Weekly Progress  ·  2026-05-25</text>
</svg>
