<svg xmlns="http://www.w3.org/2000/svg" viewBox="0 0 1200 675" width="1200" height="675">
  <path d="M 0,0 H 1200 V 675 H 0 Z" fill="#ffffff"/>
  <rect width="1200" height="5" fill="#1f618d"/>

  <!-- title -->
  <text x="60" y="52" font-family="'Helvetica Neue', Arial, sans-serif"
        font-size="26" font-weight="700" fill="#1f618d">Key Results — ZH-BERT-FT Best Model</text>
  <line x1="60" y1="65" x2="1140" y2="65" stroke="#d5dbdb" stroke-width="1.5"/>

  <!-- 4 cards: each 252×265, gap=16 -->
  <!-- x: 60, 328, 596, 864 -->

  <!-- Card 1: zh-TW QWK = 0.811 (green) -->
  <path d="M 68,90 H 304 A 8,8 0 0,1 312,98 V 347 A 8,8 0 0,1 304,355 H 68 A 8,8 0 0,1 60,347 V 98 A 8,8 0 0,1 68,90 Z" fill="#eafaf1" stroke="#a9dfbf" stroke-width="2"/>
  <rect x="60" y="90" width="252" height="7" rx="4" fill="#1e8449"/>
  <rect x="60" y="95" width="252" height="3" fill="#1e8449"/>
  <text x="186" y="138" font-family="'Helvetica Neue', Arial, sans-serif"
        font-size="17" fill="#7f8c8d" text-anchor="middle">zh-TW QWK</text>
  <text x="186" y="213" font-family="'Helvetica Neue', Arial, sans-serif"
        font-size="62" font-weight="700" fill="#1e8449" text-anchor="middle">0.811</text>
  <line x1="86" y1="240" x2="286" y2="240" stroke="#a9dfbf" stroke-width="1"/>
  <text x="186" y="260" font-family="'Helvetica Neue', Arial, sans-serif"
        font-size="16" fill="#1e8449" text-anchor="middle">+0.270 vs. zero-shot</text>
  <text x="186" y="283" font-family="'Helvetica Neue', Arial, sans-serif"
        font-size="14" fill="#7f8c8d" text-anchor="middle">ZH-BERT-FT · test set</text>
  <text x="186" y="340" font-family="'Helvetica Neue', Arial, sans-serif"
        font-size="13" fill="#b0b8c1" text-anchor="middle">parity with human EN scoring</text>

  <!-- Card 2: EN↔zh-TW Gap = −0.017 (green) -->
  <path d="M 336,90 H 572 A 8,8 0 0,1 580,98 V 347 A 8,8 0 0,1 572,355 H 336 A 8,8 0 0,1 328,347 V 98 A 8,8 0 0,1 336,90 Z" fill="#eafaf1" stroke="#a9dfbf" stroke-width="2"/>
  <rect x="328" y="90" width="252" height="7" rx="4" fill="#1e8449"/>
  <rect x="328" y="95" width="252" height="3" fill="#1e8449"/>
  <text x="454" y="138" font-family="'Helvetica Neue', Arial, sans-serif"
        font-size="17" fill="#7f8c8d" text-anchor="middle">EN↔zh-TW Gap</text>
  <text x="454" y="213" font-family="'Helvetica Neue', Arial, sans-serif"
        font-size="54" font-weight="700" fill="#1e8449" text-anchor="middle">−0.017</text>
  <line x1="354" y1="240" x2="554" y2="240" stroke="#a9dfbf" stroke-width="1"/>
  <text x="454" y="260" font-family="'Helvetica Neue', Arial, sans-serif"
        font-size="16" fill="#1e8449" text-anchor="middle">within annotation noise</text>
  <text x="454" y="283" font-family="'Helvetica Neue', Arial, sans-serif"
        font-size="14" fill="#7f8c8d" text-anchor="middle">EN-ZS gap was −0.312 (18× better)</text>
  <text x="454" y="340" font-family="'Helvetica Neue', Arial, sans-serif"
        font-size="13" fill="#b0b8c1" text-anchor="middle">cross-lingual parity achieved</text>

  <!-- Card 3: DIF Flags = 0/12 (green) -->
  <path d="M 604,90 H 840 A 8,8 0 0,1 848,98 V 347 A 8,8 0 0,1 840,355 H 604 A 8,8 0 0,1 596,347 V 98 A 8,8 0 0,1 604,90 Z" fill="#eafaf1" stroke="#a9dfbf" stroke-width="2"/>
  <rect x="596" y="90" width="252" height="7" rx="4" fill="#1e8449"/>
  <rect x="596" y="95" width="252" height="3" fill="#1e8449"/>
  <text x="722" y="138" font-family="'Helvetica Neue', Arial, sans-serif"
        font-size="17" fill="#7f8c8d" text-anchor="middle">DIF Flags</text>
  <text x="722" y="213" font-family="'Helvetica Neue', Arial, sans-serif"
        font-size="62" font-weight="700" fill="#1e8449" text-anchor="middle">0 / 12</text>
  <line x1="622" y1="240" x2="822" y2="240" stroke="#a9dfbf" stroke-width="1"/>
  <text x="722" y="260" font-family="'Helvetica Neue', Arial, sans-serif"
        font-size="16" fill="#1e8449" text-anchor="middle">EN-ZS had 6 / 12</text>
  <text x="722" y="283" font-family="'Helvetica Neue', Arial, sans-serif"
        font-size="14" fill="#7f8c8d" text-anchor="middle">Mantel-Haenszel, p&lt;.05</text>
  <text x="722" y="340" font-family="'Helvetica Neue', Arial, sans-serif"
        font-size="13" fill="#b0b8c1" text-anchor="middle">no systematic bias detected</text>

  <!-- Card 4: Annotation κ = 0.84 (amber — pending) -->
  <path d="M 872,90 H 1108 A 8,8 0 0,1 1116,98 V 347 A 8,8 0 0,1 1108,355 H 872 A 8,8 0 0,1 864,347 V 98 A 8,8 0 0,1 872,90 Z" fill="#fffbeb" stroke="#f0ca5b" stroke-width="2"/>
  <rect x="864" y="90" width="252" height="7" rx="4" fill="#d68910"/>
  <rect x="864" y="95" width="252" height="3" fill="#d68910"/>
  <!-- pending badge -->
  <rect x="924" y="103" width="78" height="22" rx="4" fill="#fef3c7" stroke="#d68910" stroke-width="1"/>
  <text x="963" y="118" font-family="'Helvetica Neue', Arial, sans-serif"
        font-size="13" fill="#d68910" text-anchor="middle">⏳ Pending</text>
  <text x="990" y="138" font-family="'Helvetica Neue', Arial, sans-serif"
        font-size="17" fill="#7f8c8d" text-anchor="middle">Annotation κ</text>
  <text x="990" y="213" font-family="'Helvetica Neue', Arial, sans-serif"
        font-size="62" font-weight="700" fill="#d68910" text-anchor="middle">0.84</text>
  <line x1="890" y1="240" x2="1090" y2="240" stroke="#f0ca5b" stroke-width="1"/>
  <text x="990" y="260" font-family="'Helvetica Neue', Arial, sans-serif"
        font-size="16" fill="#d68910" text-anchor="middle">P5–P8 pending budget</text>
  <text x="990" y="283" font-family="'Helvetica Neue', Arial, sans-serif"
        font-size="14" fill="#7f8c8d" text-anchor="middle">P1–P4 only · target: 2026-06-10</text>
  <text x="990" y="340" font-family="'Helvetica Neue', Arial, sans-serif"
        font-size="13" fill="#b0b8c1" text-anchor="middle">Cohen's κ, 2 annotators</text>

  <!-- summary bar -->
  <path d="M 66,395 H 1134 A 6,6 0 0,1 1140,401 V 449 A 6,6 0 0,1 1134,455 H 66 A 6,6 0 0,1 60,449 V 401 A 6,6 0 0,1 66,395 Z" fill="#eafaf1" stroke="#a9dfbf" stroke-width="1.5"/>
  <text x="600" y="422" font-family="'Helvetica Neue', Arial, sans-serif"
        font-size="17" font-weight="600" fill="#1e8449" text-anchor="middle">ZH-BERT-FT achieves human-parity cross-lingual scoring with zero fairness violations</text>
  <text x="600" y="445" font-family="'Helvetica Neue', Arial, sans-serif"
        font-size="15" fill="#2c3e50" text-anchor="middle">Language-matched fine-tuning + rubric-prefix conditioning is the winning recipe</text>

  <!-- footer -->
  <line x1="0" y1="648" x2="1200" y2="648" stroke="#d5dbdb" stroke-width="1"/>
  <text x="600" y="663" font-family="'Helvetica Neue', Arial, sans-serif"
        font-size="12" fill="#7f8c8d" text-anchor="middle">Cross-Lingual ESAS  ·  Weekly Progress  ·  2026-05-25</text>
</svg>
